<svg xmlns="http://www.w3.org/2000/svg">
  <!-- phone-icon -->
 <symbol id="phone" width="30" height="30" viewBox="0 0 20 20">
      <path d="M13.109,10.532a.634.634,0,0,1-.194.555L11.068,12.92a1.039,1.039,0,0,1-.326.236,1.348,1.348,0,0,1-.4.125l-.083.007q-.069.007-.18.007a6.4,6.4,0,0,1-.854-.09,6.485,6.485,0,0,1-1.444-.444A12.12,12.12,0,0,1,5.847,11.7a14.44,14.44,0,0,1-2.3-1.944A15.214,15.214,0,0,1,1.932,7.921,13.058,13.058,0,0,1,.9,6.3,8.712,8.712,0,0,1,.322,4.957,7.145,7.145,0,0,1,.058,3.916,3.439,3.439,0,0,1,0,3.229q.014-.25.014-.278a1.35,1.35,0,0,1,.125-.4,1.04,1.04,0,0,1,.236-.326L2.224.382A.612.612,0,0,1,2.668.188a.518.518,0,0,1,.319.1.965.965,0,0,1,.236.257L4.709,3.367a.676.676,0,0,1,.069.486.865.865,0,0,1-.236.444l-.68.68a.232.232,0,0,0-.049.09.343.343,0,0,0-.021.1,2.507,2.507,0,0,0,.25.666,6.118,6.118,0,0,0,.514.812,9.018,9.018,0,0,0,.986,1.1,9.2,9.2,0,0,0,1.111.993,6.414,6.414,0,0,0,.812.521,2.159,2.159,0,0,0,.5.2l.174.035a.331.331,0,0,0,.09-.021.232.232,0,0,0,.09-.049l.791-.805a.851.851,0,0,1,.583-.222.725.725,0,0,1,.375.083h.014l2.68,1.583A.7.7,0,0,1,13.109,10.532Z" fill="#fff"/>
  </symbol>
  <!-- mail-icon -->
  <symbol id="mail" width="200" height="200" viewBox="0 0 230 200">
    <path d="M17.266,71.442a2.139,2.139,0,0,1-.277,1.038l-5.451-6.1,5.392-4.718a2.142,2.142,0,0,1,.336,1.146ZM8.633,67.488l7.5-6.565a2.131,2.131,0,0,0-1.029-.272H2.158a2.124,2.124,0,0,0-1.028.272Zm2.092-.4L8.988,68.612a.541.541,0,0,1-.71,0L6.541,67.091,1.02,73.268a2.132,2.132,0,0,0,1.138.332H15.107a2.132,2.132,0,0,0,1.138-.332ZM.336,61.663A2.143,2.143,0,0,0,0,62.809v8.633A2.132,2.132,0,0,0,.277,72.48l5.451-6.1Z" transform="translate(32 -60)" fill="#fff"/>
  </symbol>
  <!-- git-icon -->
  <symbol id="git" transform="translate(3 5)" viewBox="0 0 30 30">
    <path d="m12 .5c-6.63 0-12 5.28-12 11.792 0 5.211 3.438 9.63 8.205 11.188.6.111.82-.254.82-.567 0-.28-.01-1.022-.015-2.005-3.338.711-4.042-1.582-4.042-1.582-.546-1.361-1.335-1.725-1.335-1.725-1.087-.731.084-.716.084-.716 1.205.082 1.838 1.215 1.838 1.215 1.07 1.803 2.809 1.282 3.495.981.108-.763.417-1.282.76-1.577-2.665-.295-5.466-1.309-5.466-5.827 0-1.287.465-2.339 1.235-3.164-.135-.298-.54-1.497.105-3.121 0 0 1.005-.316 3.3 1.209.96-.262 1.98-.392 3-.398 1.02.006 2.04.136 3 .398 2.28-1.525 3.285-1.209 3.285-1.209.645 1.624.24 2.823.12 3.121.765.825 1.23 1.877 1.23 3.164 0 4.53-2.805 5.527-5.475 5.817.42.354.81 1.077.81 2.182 0 1.578-.015 2.846-.015 3.229 0 .309.21.678.825.56 4.801-1.548 8.236-5.97 8.236-11.173 0-6.512-5.373-11.792-12-11.792z" fill="#fff"/>
  </symbol>
  <!-- linkedIN-icon -->
  <symbol id="linkedin" viewBox="0 0 600 600">
    <path d="M377.6,0.2H126.4C56.8,0.2,0,57,0,126.6v251.6c0,69.2,56.8,126,126.4,126H378c69.6,0,126.4-56.8,126.4-126.4V126.6
			C504,57,447.2,0.2,377.6,0.2z M168,408.2H96v-208h72V408.2z M131.6,168.2c-20.4,0-36.8-16.4-36.8-36.8c0-20.4,16.4-36.8,36.8-36.8
			c20.4,0,36.8,16.4,36.8,36.8C168,151.8,151.6,168.2,131.6,168.2z M408.4,408.2H408h-60V307.4c0-24.4-3.2-55.6-36.4-55.6
			c-34,0-39.6,26.4-39.6,54v102.4h-60v-208h56v28h1.6c8.8-16,29.2-28.4,61.2-28.4c66,0,77.6,38,77.6,94.4V408.2z" fill="#fff"/>
  </symbol>
</svg>
